<svg xmlns="http://www.w3.org/2000/svg" version="1.1" xmlns:xlink="http://www.w3.org/1999/xlink" width="1500" height="1500" viewBox="0 0 1500 1500"><rect width="1500" height="1500" x="0" y="0" id="background" stroke="transparent" fill="#ffbe79"></rect><svg xml:space="preserve" width="1000" height="1000" data-version="2" data-id="lg_cAF6VaUOsq0P6nnlWw" viewBox="0 0 550 142" x="250" y="250"><rect width="100%" height="100%" fill="transparent"></rect><path fill="#ba3b0a" d="m188.305 16.285-1.2-9.59q-2.07-.87-4.25-.87-4.36 0-6.43 4.52-2.07 4.52-2.07 12.48v9.27h15.26q0 1.3-.28 2.94-.27 1.63-.81 2.51h-14.17v40.87l10.57 2.18q.33 2.07-.55 3.82-1.96-.11-4.85-.22l-5.72-.22q-2.83-.11-4.9-.11-3.06 0-6.65.16-3.6.17-6.65.39-.33-2.07.22-3.82 1.96-.43 3.92-.93 1.96-.49 3.71-1.25v-40.87h-7.09q-.11-1.09.27-3 .39-1.91.82-2.45h6v-6.54q0-11.12 5.12-17.55 5.12-6.43 13.41-6.43 4.36 0 7.14.7 2.78.71 5.72 2.57-.33 3.05-.82 6.05-.49 2.99-1.25 5.83-.77.11-2.18.05-1.42-.05-2.29-.49"></path><rect width="39.47" height="82.84" x="-19.73" y="-41.42" fill="none" rx="0" ry="0" transform="translate(175.61 43.5)"></rect><path fill="#ba3b0a" d="M213.375 29.475v48.94l7.3 2.18q.33 2.07-.54 3.82-2.95-.22-6.05-.39-3.11-.16-6.16-.16-3.05 0-6.65.16-3.6.17-6.65.39-.33-2.07.22-3.82 2.07-.54 4.09-.98 2.01-.44 3.54-1.2v-42.51l-9.05-.87q-.33-2.18.55-3.82 3.92-.54 7.9-1.3 3.98-.77 7.36-1.64 1.09.11 2.07.38.98.28 2.07.82m-7.3-11.12q-1.86 0-3.38-1.2-1.53-1.2-2.4-2.94-.87-1.74-.87-3.27 0-1.42 1.2-2.89 1.19-1.47 2.99-2.51 1.8-1.03 3.55-1.03 1.96 0 3.48 1.25 1.53 1.26 2.35 2.95.81 1.69.81 3.21 0 1.42-1.14 2.94-1.14 1.53-2.94 2.51-1.8.98-3.65.98"></path><rect width="27.66" height="79.9" x="-13.83" y="-39.95" fill="none" rx="0" ry="0" transform="translate(207.55 44.97)"></rect><path fill="#ba3b0a" d="m233.535 67.515 1.09 11.56q2.29 1.09 4.64 1.52 2.34.44 5.28.44 4.47 0 7.96-1.96 3.49-1.97 3.49-6.33 0-2.29-1.26-4.25-1.25-1.96-4.36-4.03-3.1-2.07-8.88-4.69-6.32-2.94-9.81-6.81-3.49-3.87-3.49-10.74 0-5.56 2.78-8.77 2.78-3.22 7.2-4.63 4.41-1.42 9.32-1.42 4.25 0 8.44.82 4.2.81 7.47 2.23 0 .55.05 1.2.06.65.06 1.2 0 6.65-2.07 12.53-.44.11-.82.17-.38.05-.82.05-1.63 0-3.27-.65l-1.74-11.77q-1.42-.44-3.27-.71-1.85-.27-3.71-.27-2.5 0-4.96.7-2.45.71-4.03 2.4t-1.58 4.74q0 2.07.93 3.93.92 1.85 3.7 3.87 2.78 2.01 8.34 4.74 8.72 4.14 12.26 8.01 3.55 3.87 3.55 9.65 0 5.56-2.95 9.04-2.94 3.49-7.68 5.13-4.74 1.63-10.08 1.63-5.13 0-9.54-.82-4.42-.81-8.89-3.54v-1.85q0-2.94.39-6.05.38-3.11 1.58-6.7.65-.11 1.09-.11 1.96 0 3.59.54"></path><rect width="39.14" height="58.64" x="-19.57" y="-29.32" fill="none" rx="0" ry="0" transform="translate(246.96 57.23)"></rect><path fill="#ba3b0a" d="M290.215 2.665v51.01h2.84l17.44-19.4-7.96-1.64q-.11-.43-.11-1.2 0-1.31.66-2.61 2.94.11 5.5.32 2.56.22 5.61.22 3.16 0 5.18-.22 2.02-.21 5.07-.32.11.43.11.81v.82q0 .98-.33 2.18-1.74.11-4.14.82-2.4.71-4.03 1.91l-14.83 15.91 20.17 27.14q.98.87 3.1 1.42 2.13.54 4.2.76 0 .33.05.6.06.27.06.6 0 1.31-.65 2.62-3.17-.22-6.38-.33-3.22-.11-6.6-.11-2.39 0-4.85.11-2.45.11-5.06.33-.11-.44-.11-.82v-.71q0-1.2.32-2.29l5.34-.33-15.58-22.23h-5.02v20.38l7.31 2.18q0 .33.05.6.06.27.06.6 0 1.31-.66 2.62-2.94-.22-6.05-.39-3.1-.16-6.16-.16-3.05 0-6.65.16-3.59.17-6.64.39-.11-.44-.11-.82v-.71q0-1.2.32-2.29 2.07-.54 4.09-.98 2.02-.44 3.54-1.2V9.095l-9.04-.87q-.11-.33-.11-.66v-.54q0-1.31.65-2.62 3.93-.54 7.9-1.31 3.98-.76 7.36-1.63 1.09.11 2.07.38.98.27 2.07.82"></path><rect width="58.64" height="82.95" x="-29.32" y="-41.48" fill="none" rx="0" ry="0" transform="translate(299.99 43.44)"></rect><path fill="#ba3b0a" d="M351.145 29.475v48.94l7.31 2.18q.32 2.07-.55 3.82-2.94-.22-6.05-.39-3.1-.16-6.16-.16-3.05 0-6.64.16-3.6.17-6.65.39-.33-2.07.21-3.82 2.08-.54 4.09-.98 2.02-.44 3.54-1.2v-42.51l-9.04-.87q-.33-2.18.54-3.82 3.93-.54 7.9-1.3 3.98-.77 7.36-1.64 1.09.11 2.07.38.98.28 2.07.82m-7.3-11.12q-1.85 0-3.38-1.2-1.52-1.2-2.4-2.94-.87-1.74-.87-3.27 0-1.42 1.2-2.89 1.2-1.47 3-2.51 1.8-1.03 3.54-1.03 1.96 0 3.49 1.25 1.53 1.26 2.34 2.95.82 1.69.82 3.21 0 1.42-1.14 2.94-1.15 1.53-2.95 2.51-1.8.98-3.65.98"></path><rect width="27.65" height="79.9" x="-13.82" y="-39.95" fill="none" rx="0" ry="0" transform="translate(345.33 44.97)"></rect><path fill="#ba3b0a" d="M382.655 85.615q-3.49 0-6.33-1.31-2.83-1.31-4.41-4.53-1.58-3.21-1.58-8.88v-34.77h-7.63q-.66-1.2-.71-2.45-.05-1.26.16-2.46 4.58 0 6.87-1.19 2.29-1.2 3.54-4.15 1.26-2.94 2.67-7.95h5.78v12.2h11.45q1.52 3.17 0 6h-11.45v32.05q0 5.01.49 7.57.49 2.56 1.69 3.49 1.2.93 3.27.93 1.74 0 3.38-.66 1.63-.65 3.16-1.52 1.53.98 1.64 3.27-1.2 1.41-4.36 2.88-3.17 1.48-7.63 1.48"></path><rect width="32.68" height="67.69" x="-16.34" y="-33.84" fill="none" rx="0" ry="0" transform="translate(378.8 52.27)"></rect><path fill="#ba3b0a" d="M10.865 124.305h-5.28v-1.8h12.55v1.8h-5.25v14.93h-2.02z"></path><rect width="12.55" height="16.73" x="-6.28" y="-8.37" fill="none" rx="0" ry="0" transform="translate(12.36 131.37)"></rect><path fill="#ba3b0a" d="M28.395 139.235h-2.03v-16.73h2.03v7.46h8.91v-7.46h2.02v16.73h-2.02v-7.48h-8.91z"></path><rect width="12.96" height="16.73" x="-6.48" y="-8.37" fill="none" rx="0" ry="0" transform="translate(33.34 131.37)"></rect><path fill="#ba3b0a" d="M58.705 139.235h-10.22v-16.73h10.1v1.8h-8.08v5.59h7.54v1.8h-7.54v5.75h8.2z"></path><rect width="10.22" height="16.73" x="-5.11" y="-8.37" fill="none" rx="0" ry="0" transform="translate(54.1 131.37)"></rect><path fill="#ba3b0a" d="M69.355 139.235h-2.02v-16.73h5.66q1.97 0 3.22.67 1.25.67 1.86 1.83.6 1.16.6 2.64 0 1.48-.6 2.62-.6 1.15-1.85 1.79-1.25.65-3.21.65h-4.56v-1.82h4.5q1.34 0 2.16-.39.82-.4 1.19-1.12.37-.73.37-1.73 0-1.01-.37-1.76-.38-.75-1.2-1.17-.82-.41-2.18-.41h-3.57zm9.98 0h-2.36l-4.05-7.52h2.29z"></path><rect width="12" height="16.73" x="-6" y="-8.37" fill="none" rx="0" ry="0" transform="translate(73.83 131.37)"></rect><path fill="#ba3b0a" d="M97.375 139.235h-10.22v-16.73h10.11v1.8h-8.09v5.59h7.55v1.8h-7.55v5.75h8.2z"></path><rect width="10.22" height="16.73" x="-5.11" y="-8.37" fill="none" rx="0" ry="0" transform="translate(92.77 131.37)"></rect><path fill="#ba3b0a" d="M117.585 122.505h2.03v16.73h-2.03z"></path><rect width="2.03" height="16.73" x="-1.01" y="-8.37" fill="none" rx="0" ry="0" transform="translate(119.1 131.37)"></rect><path fill="#ba3b0a" d="M134.065 139.535q-1.8 0-3.11-.58-1.32-.58-2.06-1.62-.75-1.04-.85-2.41h2.09q.09.94.64 1.56.56.62 1.42.92.87.31 1.87.31 1.16 0 2.08-.39.93-.38 1.47-1.06.54-.69.54-1.61 0-.83-.48-1.35-.47-.51-1.23-.84-.75-.32-1.64-.57l-2.04-.58q-1.97-.57-3.11-1.62-1.14-1.05-1.14-2.74 0-1.41.76-2.46t2.05-1.63q1.3-.58 2.9-.58 1.61 0 2.87.57 1.26.58 2 1.58.74.99.79 2.25h-1.98q-.15-1.24-1.19-1.92-1.03-.69-2.56-.69-1.1 0-1.93.36-.83.36-1.29.99-.47.63-.47 1.44 0 .89.55 1.43.56.54 1.31.85.76.3 1.38.48l1.68.47q.65.18 1.46.49.8.3 1.55.82.74.51 1.23 1.31.48.81.48 1.99 0 1.34-.71 2.44-.7 1.09-2.05 1.74-1.35.65-3.28.65"></path><rect width="12.06" height="17.25" x="-6.03" y="-8.63" fill="none" rx="0" ry="0" transform="translate(134.57 131.41)"></rect><path fill="#ba3b0a" d="M171.395 122.505h2.02v16.73h-2l-9.1-13.14h-.18v13.14h-2.02v-16.73h1.96l9.16 13.16h.16z"></path><rect width="13.3" height="16.73" x="-6.65" y="-8.37" fill="none" rx="0" ry="0" transform="translate(167.26 131.37)"></rect><path fill="#ba3b0a" d="M189.315 139.465q-2.13 0-3.81-1.05-1.67-1.04-2.63-2.97-.96-1.92-.96-4.56 0-2.65.96-4.58.96-1.94 2.63-2.98 1.68-1.04 3.81-1.04 2.14 0 3.81 1.04 1.66 1.04 2.61 2.98.96 1.93.96 4.58 0 2.64-.96 4.56-.95 1.93-2.61 2.97-1.67 1.05-3.81 1.05m0-1.89q1.52 0 2.75-.77 1.22-.77 1.95-2.26.72-1.49.72-3.66 0-2.18-.72-3.68-.73-1.5-1.95-2.27-1.23-.77-2.75-.77t-2.75.77q-1.24.77-1.97 2.27t-.73 3.68q0 2.17.73 3.66.73 1.49 1.97 2.26 1.23.77 2.75.77"></path><rect width="14.78" height="17.18" x="-7.39" y="-8.59" fill="none" rx="0" ry="0" transform="translate(189.8 131.38)"></rect><path fill="#ba3b0a" d="M209.555 124.305h-5.28v-1.8h12.55v1.8h-5.25v14.93h-2.02z"></path><rect width="12.55" height="16.73" x="-6.28" y="-8.37" fill="none" rx="0" ry="0" transform="translate(211.05 131.37)"></rect><path fill="#ba3b0a" d="M227.085 139.235h-2.03v-16.73h2.03v7.46h8.91v-7.46h2.02v16.73h-2.02v-7.48h-8.91z"></path><rect width="12.96" height="16.73" x="-6.48" y="-8.37" fill="none" rx="0" ry="0" transform="translate(232.03 131.37)"></rect><path fill="#ba3b0a" d="M247.175 122.505h2.02v16.73h-2.02z"></path><rect width="2.02" height="16.73" x="-1.01" y="-8.37" fill="none" rx="0" ry="0" transform="translate(248.69 131.37)"></rect><path fill="#ba3b0a" d="M269.615 122.505h2.03v16.73h-2l-9.1-13.14h-.18v13.14h-2.02v-16.73h1.95l9.17 13.16h.15z"></path><rect width="13.3" height="16.73" x="-6.65" y="-8.37" fill="none" rx="0" ry="0" transform="translate(265.5 131.37)"></rect><path fill="#ba3b0a" d="M287.595 139.465q-2.22 0-3.9-1.05-1.68-1.04-2.62-2.97-.93-1.92-.93-4.56 0-2.65.93-4.58.94-1.94 2.59-2.98t3.8-1.04q1.32 0 2.47.39 1.14.39 2.04 1.12.9.73 1.5 1.73t.84 2.21h-2.09q-.27-.83-.7-1.48-.43-.66-1.04-1.13-.61-.46-1.36-.71-.75-.25-1.66-.25-1.48 0-2.7.77-1.22.77-1.95 2.27-.72 1.5-.72 3.68 0 2.17.73 3.66.73 1.49 1.98 2.26 1.24.77 2.79.77 1.44 0 2.53-.62 1.09-.61 1.71-1.74.62-1.13.62-2.67l.62.14h-5.03v-1.8h6.38v1.8q0 2.06-.87 3.58-.88 1.53-2.42 2.36-1.55.84-3.54.84"></path><rect width="14.28" height="17.18" x="-7.14" y="-8.59" fill="none" rx="0" ry="0" transform="translate(287.79 131.38)"></rect><path fill="#ba3b0a" d="M319.795 139.235h-2.11l-4.56-16.73h2.04l3.51 13.63h.15l3.57-13.63h2.3l3.54 13.63h.18l3.49-13.63h2.06l-4.58 16.73h-2.09l-3.68-13.32h-.14z"></path><rect width="20.84" height="16.73" x="-10.42" y="-8.37" fill="none" rx="0" ry="0" transform="translate(324.05 131.37)"></rect><path fill="#ba3b0a" d="M351.885 139.235h-10.21v-16.73h10.1v1.8h-8.08v5.59h7.54v1.8h-7.54v5.75h8.19z"></path><rect width="10.21" height="16.73" x="-5.11" y="-8.37" fill="none" rx="0" ry="0" transform="translate(347.28 131.37)"></rect><path fill="#ba3b0a" d="M378.845 139.465q-2.14 0-3.81-1.05-1.67-1.04-2.63-2.97-.95-1.92-.95-4.56 0-2.65.95-4.58.96-1.94 2.63-2.98t3.81-1.04q1.25 0 2.37.37t2.02 1.07q.9.7 1.5 1.72.6 1.01.82 2.29h-2.02q-.18-.87-.62-1.53-.45-.67-1.08-1.12-.64-.46-1.4-.69-.76-.23-1.59-.23-1.52 0-2.76.77-1.23.77-1.96 2.27-.72 1.5-.72 3.68 0 2.17.72 3.66.73 1.49 1.96 2.26 1.24.77 2.76.77.83 0 1.59-.23.76-.23 1.4-.68.63-.46 1.08-1.12.44-.66.62-1.54h2.02q-.22 1.29-.82 2.3-.6 1.01-1.5 1.72-.9.7-2.02 1.07-1.12.37-2.37.37"></path><rect width="14.1" height="17.18" x="-7.05" y="-8.59" fill="none" rx="0" ry="0" transform="translate(379 131.38)"></rect><path fill="#ba3b0a" d="m399.625 125.155-4.98 14.08h-2.14l6.16-16.73h2.09l6.13 16.73h-2.11l-5.01-14.08zm-4.2 9.34v-1.79h8.56v1.79z"></path><rect width="14.38" height="16.73" x="-7.19" y="-8.37" fill="none" rx="0" ry="0" transform="translate(400.2 131.37)"></rect><path fill="#ba3b0a" d="M425.875 122.505h2.02v16.73h-2l-9.1-13.14h-.18v13.14h-2.02v-16.73h1.96l9.16 13.16h.16z"></path><rect width="13.3" height="16.73" x="-6.65" y="-8.37" fill="none" rx="0" ry="0" transform="translate(421.75 131.37)"></rect><path fill="#ba3b0a" d="M439.235 128.815h-1.62l-.23-6.31h2.09z"></path><rect width="2.09" height="6.31" x="-1.04" y="-3.15" fill="none" rx="0" ry="0" transform="translate(438.93 126.16)"></rect><path fill="#ba3b0a" d="M453.315 124.305h-5.28v-1.8h12.56v1.8h-5.26v14.93h-2.02z"></path><rect width="12.56" height="16.73" x="-6.28" y="-8.37" fill="none" rx="0" ry="0" transform="translate(454.81 131.37)"></rect><path fill="#ba3b0a" d="M482.425 139.235h-2.02v-16.73h10.04v1.8h-8.02v5.84h7.25v1.79h-7.25z"></path><rect width="10.04" height="16.73" x="-5.02" y="-8.37" fill="none" rx="0" ry="0" transform="translate(485.93 131.37)"></rect><path fill="#ba3b0a" d="M499.015 122.505h2.02v16.73h-2.02z"></path><rect width="2.02" height="16.73" x="-1.01" y="-8.37" fill="none" rx="0" ry="0" transform="translate(500.52 131.37)"></rect><path fill="#ba3b0a" d="M515.485 139.535q-1.8 0-3.11-.58-1.31-.58-2.06-1.62t-.85-2.41h2.09q.09.94.65 1.56.55.62 1.42.92.86.31 1.86.31 1.16 0 2.08-.39.93-.38 1.47-1.06.54-.69.54-1.61 0-.83-.47-1.35-.47-.51-1.23-.84-.76-.32-1.65-.57l-2.04-.58q-1.97-.57-3.11-1.62-1.14-1.05-1.14-2.74 0-1.41.76-2.46t2.06-1.63q1.29-.58 2.89-.58 1.61 0 2.87.57 1.26.58 2 1.58.74.99.79 2.25h-1.98q-.14-1.24-1.18-1.92-1.04-.69-2.57-.69-1.1 0-1.93.36-.83.36-1.29.99-.46.63-.46 1.44 0 .89.55 1.43.55.54 1.31.85.75.3 1.37.48l1.69.47q.65.18 1.45.49.8.3 1.55.82.75.51 1.23 1.31.48.81.48 1.99 0 1.34-.71 2.44-.7 1.09-2.05 1.74-1.35.65-3.28.65"></path><rect width="12.06" height="17.25" x="-6.03" y="-8.63" fill="none" rx="0" ry="0" transform="translate(516 131.41)"></rect><path fill="#ba3b0a" d="M536.695 139.465q-2.13 0-3.8-1.05-1.68-1.04-2.63-2.97-.96-1.92-.96-4.56 0-2.65.96-4.58.95-1.94 2.63-2.98 1.67-1.04 3.8-1.04 1.26 0 2.38.37 1.12.37 2.01 1.07.9.7 1.5 1.72.61 1.01.83 2.29h-2.02q-.18-.87-.63-1.53-.44-.67-1.07-1.12-.64-.46-1.4-.69-.77-.23-1.6-.23-1.51 0-2.75.77-1.23.77-1.96 2.27-.72 1.5-.72 3.68 0 2.17.72 3.66.73 1.49 1.96 2.26 1.24.77 2.75.77.83 0 1.6-.23.76-.23 1.4-.68.63-.46 1.07-1.12.45-.66.63-1.54h2.02q-.22 1.29-.83 2.3-.6 1.01-1.5 1.72-.89.7-2.01 1.07-1.12.37-2.38.37"></path><rect width="14.11" height="17.18" x="-7.05" y="-8.59" fill="none" rx="0" ry="0" transform="translate(536.86 131.38)"></rect></svg></svg>